<svg height="138" version="1.1" width="138" xmlns="http://www.w3.org/2000/svg" viewBox="0 0 138 138" style="overflow: hidden; position: relative;"><desc style="-webkit-tap-highlight-color: rgba(0, 0, 0, 0);">Created with Raphaël 2.1.0</desc><defs style="-webkit-tap-highlight-color: rgba(0, 0, 0, 0);"><linearGradient id="73890-_5DA66F-_1EB31E" x1="0" y1="1" x2="6.123233995736766e-17" y2="0" gradientTransform="matrix(1,0,0,1,0,0)" style="-webkit-tap-highlight-color: rgba(0, 0, 0, 0);"><stop offset="0%" stop-color="#5da66f" style="-webkit-tap-highlight-color: rgba(0, 0, 0, 0);"></stop><stop offset="100%" stop-color="#1eb31e" style="-webkit-tap-highlight-color: rgba(0, 0, 0, 0);"></stop></linearGradient><linearGradient id="73990-_92999C-_FFFFFF" x1="0" y1="1" x2="6.123233995736766e-17" y2="0" gradientTransform="matrix(1,0,0,1,0,0)" style="-webkit-tap-highlight-color: rgba(0, 0, 0, 0);"><stop offset="0%" stop-color="#92999c" style="-webkit-tap-highlight-color: rgba(0, 0, 0, 0);"></stop><stop offset="100%" stop-color="#ffffff" style="-webkit-tap-highlight-color: rgba(0, 0, 0, 0);"></stop></linearGradient></defs><circle cx="69" cy="69" r="69" fill="url(#73890-_5DA66F-_1EB31E)" stroke="none" opacity="1" fill-opacity="1" style="-webkit-tap-highlight-color: rgba(0, 0, 0, 0); opacity: 1; fill-opacity: 1;"></circle><text x="69" y="69" text-anchor="middle" font="10px &quot;Arial&quot;" stroke="none" fill="url(#73990-_92999C-_FFFFFF)" style="-webkit-tap-highlight-color: rgba(0, 0, 0, 0); text-anchor: middle; font-style: normal; font-variant: normal; font-weight: bold; font-stretch: normal; font-size: 59px; line-height: normal; font-family: 'Trebuchet MS'; opacity: 1; fill-opacity: 1;" font-size="59px" font-family="Trebuchet MS" font-weight="bold" opacity="1" fill-opacity="1" transform="matrix(1,0,0,1,0,0)"><tspan dy="20" style="-webkit-tap-highlight-color: rgba(0, 0, 0, 0);">ME</tspan></text><path fill="#ffffff" stroke="none" d="M69.014556,-0.00369946C39.251922,-0.00369946,13.880881000000002,18.77861,4.273032499999999,45.0588C4.2730728,45.0691,4.272942,45.0798,4.273032499999999,45.089999999999996C4.375683199999999,56.680589999999995,33.292688999999996,66.09,68.983113,66.09C104.67352,66.09,133.62198,56.68059,133.72462000000002,45.09C133.72162000000003,45.081,133.72762,45.067800000000005,133.72462000000002,45.058800000000005C124.11665,18.77891,98.776981,-0.00369946,69.014556,-0.00369946Z" fill-opacity="0.3" transform="matrix(1,0,0,1,0,0)" style="-webkit-tap-highlight-color: rgba(0, 0, 0, 0); fill-opacity: 0.3;"></path></svg>